<svg xmlns="http://www.w3.org/2000/svg" xmlns:xlink="http://www.w3.org/1999/xlink" version="1.0" x="0px" y="0px" viewBox="0 0 24 24" enable-background="new 0 0 24 24" xml:space="preserve"><polygon points="19.084,11.979 18.705,11.601 16.355,9.218 15.6,9.974 17.037,11.45 12.568,11.45 12.568,6.983 14.01,8.423   14.803,7.704 12.379,5.282 12,4.942 11.623,5.282 9.234,7.628 9.992,8.386 11.471,6.946 11.471,11.45 6.961,11.45 8.4,9.974   7.645,9.218 5.295,11.601 4.916,11.979 5.295,12.36 7.719,14.743 8.477,14.024 6.961,12.511 11.471,12.511 11.471,17.052   9.992,15.577 9.234,16.333 11.623,18.683 12,19.058 12.379,18.644 14.803,16.294 14.01,15.503 12.568,16.978 12.568,12.511   17.037,12.511 15.561,14.024 16.281,14.743 18.705,12.36 19.084,11.979 "></polygon></svg>